/* XPM */
static char *_25dede8a0eb4473840e39aa73681262[] = {
/* columns rows colors chars-per-pixel */
"16 16 90 1 ",
"  c #29AADB",
". c #29AADC",
"X c #29ABDD",
"o c #2AABDD",
"O c #2AACDD",
"+ c #2BACDD",
"@ c #2BACDE",
"# c #2CACDD",
"$ c #2CACDE",
"% c #2CADDF",
"& c #2DADDF",
"* c #2CADE0",
"= c #2EAEE0",
"- c #2DAFE2",
"; c #2DAFE3",
": c #2FB0E4",
"> c #2FB1E4",
", c #31B0E1",
"< c #33B0E0",
"1 c #33B1E2",
"2 c #34B2E2",
"3 c #34B2E3",
"4 c #30B1E4",
"5 c #30B1E5",
"6 c #31B2E5",
"7 c #32B2E5",
"8 c #33B3E5",
"9 c #32B3E6",
"0 c #33B3E6",
"q c #35B2E4",
"w c #35B3E4",
"e c #34B3E5",
"r c #34B3E6",
"t c #34B4E6",
"y c #36B4E6",
"u c #36B5E6",
"i c #37B5E6",
"p c #36B5E7",
"a c #38B5E6",
"s c #38B5E7",
"d c #38B6E7",
"f c #3AB6E7",
"g c #3BB7E7",
"h c #3EB6E4",
"j c #3FB7E5",
"k c #3FB8E7",
"l c #38B6E8",
"z c #39B6E8",
"x c #3AB6E8",
"c c #3BB7E8",
"v c #3CB7E8",
"b c #3BB8E9",
"n c #3BB8EA",
"m c #3DB8E8",
"M c #3DB9E9",
"N c #3FB9E8",
"B c #3EB9E9",
"V c #3FB9E9",
"C c #3DB9EA",
"Z c #3EB9EA",
"A c #3EB9EB",
"S c #3FBAEA",
"D c #3EBAEB",
"F c #3FBAEB",
"G c #40B8E5",
"H c #41B8E5",
"J c #42B9E7",
"K c #40B9E8",
"L c #40BAE9",
"P c #41BAE9",
"I c #42BAE8",
"U c #43BAE8",
"Y c #43BBE9",
"T c #40BAEA",
"R c #40BAEB",
"E c #40BBEB",
"W c #41BBEB",
"Q c #43BBEA",
"! c #45BCEB",
"~ c #40BBEC",
"^ c #42BCEC",
"/ c #43BCEC",
"( c #42BCED",
") c #43BDED",
"_ c #45BDEC",
"` c #44BDED",
"' c #46BEEE",
"] c #47BFEE",
"[ c #46BFEF",
"{ c None",
/* pixels */
"{{{{{GJ!G!H{{{{{",
"{{{G!`]]]`!Q{{{{",
"{{jQ`[]`]`][Qj{{",
"{kQ`/```!```(QG{",
"{Q{{{{{CCQQ~C~({",
"{{{CD~~~CC{Q{QQC",
"{vCDDDDvCCCf{{CC",
"fbbbvnnnbCf{nnfb",
"fddfdnpffddfdfnd",
"dr{3<{{{1131{{1d",
"99rr99,rrrrrrr99",
"{19999999999999{",
"{==9>>9>>>9>9=={",
"{{$+>=:::>>>$#{{",
"{{{++;;;:==.+{{{",
"{{{{{..*...{{{{{"
};
