/* XPM */
static char *_c44d60f17f34db6c3a75e075d0ec10e[] = {
/* columns rows colors chars-per-pixel */
"64 64 24 1 ",
"  c #27A6D4",
". c #28A7D5",
"X c #2AA8D6",
"o c #2BABDC",
"O c #36ADD7",
"+ c #32AEDD",
"@ c #38AFD9",
"# c #33B0DF",
"$ c #3BB2DE",
"% c #2DAEE1",
"& c #30AFE0",
"* c #2EB1E4",
"= c #33B3E5",
"- c #3BB6E5",
"; c #3EB8E7",
": c #37B6E8",
"> c #39B7E9",
", c #3DB9EA",
"< c #40B7E4",
"1 c #41B9E6",
"2 c #44BDED",
"3 c #48BFEE",
"4 c #48C0EF",
"5 c None",
/* pixels */
"5555555555555555555555555532332433433155555555555555555555555555",
"555555555555555555555513332231<<<<112334335555555555555555555555",
"555555555555555555523321<<$<5$<<$$551$31$14315555555555555555555",
"555555555555555551321<$5$<11232333332121$O<133155555555555555555",
"5555555555555552331$-:>2334444444444343321-511241555555555555555",
"555555555555552212-<2244334444444444334444312@=22355555555555555",
"555555555555131$$12333444444444444444444444422>5<115555555555555",
"5555555555522<$12333334433333333442333334442334,$523155555555555",
"55555555553155<22444244224444444433344444424424431<-225555555555",
"55555555522$$12344242442442222243332444224244242321@@21555555555",
"5555555522$$1442424444242444424244244242444244423341$-1255555555",
"555555521@-133244222242442242424223224242224242432241$$115555555",
"55555511-@2232222422244224222442224224422422244222323,5$25555555",
"55555;;$$2222323242422242224422424222222424222223242222--1555555",
"5555522;;2222222422422422222222224242224222222242222222;$1255555",
"5555;222222222,555555555,,22222222222222222222222;52322222215555",
"5555222,2;555555555555555555522222222222222222222;5;2222222,5555",
"555122;5555555555555555555555555;,;22,22,5,222222;55,2222222,555",
"555;;555555555555555555555555555555;,22225>2222,2;55222222222555",
"5555555555555555555555;;,22,2222,2;;--;,;5,22,222;55,2,22,2,2,55",
"55555555555555555;,222,2,222,22,22,22,;555522,222>55;22,22,2,,55",
"55555555555555,,2,2,,22,2,,22,222,,22,2-555-;22,2>555,2,,,222,55",
"55555555555>,2,2,2,2,2,2,2,2,22,,22,,2;5555555;,,;555,222,2,2,,5",
"5555555555,,2,22,,2,2,2,2,2,2,,22,,22;55>;;-5555;5555;,2,2,2,2,5",
"55555555;2,,2,,,2,2,2,,,,,,22,,,,,,,,,>,2,,,,55555555>2,,,,2,2,5",
"555555-,,,2,,,2,,,,,,,,2,2,,,,,2,22,2,,,,,2,,,-555555-;,,2,,,,,5",
"55555>,,2,,,,2,,,,,22,,,,2,,2,,,,2,,,,,22,,,,2,-5555555;,,,2,,,>",
"5555,,,,,,,,,,,,,,,,,,,,,,,,,,,,,,,,,,,,,,,,,,>555555555>,,,,,,;",
"555>,,,,,,,,,,,,,,,,,,,,,,,,,,,,,,,,,,,,,;,,>-555555555555;,,,,,",
"55>,,,,,,,,,,,>,,,,,,,,,,,,,,,,,,,,,,,,,,,,>555555->;>:555:,,,,;",
"5-;>,>,,>,,,>,,,,,,,>,,,,,,,,,,,,,,>>,,,;>-55555>>;,>,>>-5>,,,>>",
":>,,,,,>,>>,,>,,,,,,,>>,>>>,>>>,,>,>,>,,-=555:>,>,>,,,>,,>>,>>,>",
">,>>>;>>>;>>>>>>>>>>>>;>>>>>>>>>>,>>;>>>>-==>>;>>-:>>>>;>>>>,,>>",
"->>>-=#55#=>>>>>>>>>>>>>>>;->;>>>>>>>>;>>>>;;>>>-55>>>>>>>>>>>>>",
":>>>>:555->>>>>>>>-->>>>>>:=:>>-:>>>>>>>>>>>>:>>-==>-:>->>>>>>>>",
":>>>>>:55:>:55#5>=#=5:>-55++=>=5&=:>>55&&>-55#=>:55-:55+55:>>>>:",
"=>-:>>&55=-:55&::=##55-#55:==-55:>+-555>-=55#>#==55:=55:55&:::>=",
"=>>:>=&55:-=55>>=55$55==55=-&555=>&=555>-=55=>:#:55:=55:555::>>#",
"#:::>>=55=>=55=:555:55==55++:+55=-&&555>:=55#>=#=55:=55:555>::-5",
"5:::>-#55=:=55=:&55=55==555=::55==+-&55==:55#=+==55-=55-555::::5",
"5:::::&5*::=5*=::=5++5=&55555>=*++=::***&:==***::5*==5*:=5&>:>=5",
"5&=:=::::*=:=>:=:::==>:&&&+5&>>==:=:*:=:>=:==:=:>=::=::::::===&5",
"55::=>=:::::=:::=::>==>=***==>=>::::=:==::=::=====:=>===:::::=55",
"55======:*:*===::&===>====:*=====&:=:=::====:*::===:==:======:55",
"55*====::==::=:*:=:=>===:===*:::====:=:===:==:::=:=:==:=>====&55",
"555=========*:*:*========*=:::**==============*======:======&555",
"555========:==:=========::*:*:*:=============:==============&555",
"5555===**:***:**:==*===:**:*:*:*=============**:=======**===5555",
"5555&==5o=====*===***::****::*::*::**:*:*****=====*==*=o.&&55555",
"55555&*oo&*=*==*=*=****::=******:***:****=:=====*=*===*.o=*55555",
"555555*=o.&=*==**==*:*:**::**::****:**:*:*=**==**==*=&5o==555555",
"555555o&+5o&=*=*=**=****************:******=**=***=*ooX*&5555555",
"5555555***..***==*=************::***********=**==***oXo=*5555555",
"55555555*=o o%*****==*****************:**:********%o ***55555555",
"555555555o*o5.*%*=******:*=*:**********=*:********o o**555555555",
"5555555555*=o .o%******************:************%5%%=o5555555555",
"55555555555**ooo.%*%%************************%%.5X**o55555555555",
"555555555555o**ooo%%***********************%%o5.o**5555555555555",
"55555555555555**%oo.%%%*****%**********%%%% %o.***55555555555555",
"555555555555555o%%%%  ..%%%*%%%%*****%%%    o%%%5555555555555555",
"55555555555555555%%%ooo   oo%o%%o%%%oo%o  o%**o55555555555555555",
"5555555555555555555o%%%%% o 55    55o o%%*%%o5555555555555555555",
"5555555555555555555555*%%*%%o%ooo%%%%%%%%o5555555555555555555555",
"55555555555555555555555555oo%%%%%%%%%%55555555555555555555555555"
};
