/* XPM */
static char *_56b8142361143ebbf71acbf9342717a[] = {
/* columns rows colors chars-per-pixel */
"32 32 167 2 ",
"   c #29AADA",
".  c #2AAADA",
"X  c #2AAADB",
"o  c #2AABDB",
"O  c #2BABDB",
"+  c #2AABDC",
"@  c #2AABDD",
"#  c #2BACDD",
"$  c #2BACDE",
"%  c #2AACDF",
"&  c #2BADDF",
"*  c #2CACDC",
"=  c #2CACDD",
"-  c #2DACDD",
";  c #2CACDE",
":  c #2CADDE",
">  c #2CADDF",
",  c #2FAEDF",
"<  c #2BADE0",
"1  c #2CADE0",
"2  c #2CAEE0",
"3  c #2DAEE0",
"4  c #2CAEE1",
"5  c #2DAEE1",
"6  c #2DAFE1",
"7  c #2EAEE0",
"8  c #2FAFE0",
"9  c #2FAFE1",
"0  c #2CAFE2",
"q  c #2DAFE2",
"w  c #2EAFE2",
"e  c #2DB0E3",
"r  c #2FB0E2",
"t  c #2EB0E3",
"y  c #2FB0E3",
"u  c #2DB0E4",
"i  c #2EB0E4",
"p  c #2FB1E4",
"a  c #33B0E0",
"s  c #33B1E0",
"d  c #30B0E3",
"f  c #30B1E3",
"g  c #34B1E2",
"h  c #35B2E2",
"j  c #34B2E3",
"k  c #35B3E3",
"l  c #36B2E3",
"z  c #30B1E5",
"x  c #31B2E5",
"c  c #32B2E4",
"v  c #33B2E4",
"b  c #32B2E5",
"n  c #32B3E6",
"m  c #33B3E6",
"M  c #34B2E4",
"N  c #34B3E4",
"B  c #35B3E4",
"V  c #34B3E5",
"C  c #35B3E5",
"Z  c #36B3E4",
"A  c #34B3E6",
"S  c #35B4E5",
"D  c #37B4E4",
"F  c #36B4E5",
"G  c #37B4E5",
"H  c #34B4E6",
"J  c #35B4E6",
"K  c #35B4E7",
"L  c #35B5E7",
"P  c #36B4E6",
"I  c #37B5E6",
"U  c #36B5E7",
"Y  c #37B5E7",
"T  c #3EB5E2",
"R  c #3DB6E3",
"E  c #38B5E6",
"W  c #38B5E7",
"Q  c #39B6E6",
"!  c #38B6E7",
"~  c #39B6E7",
"^  c #3AB6E6",
"/  c #3AB6E7",
"(  c #3BB7E7",
")  c #3EB6E4",
"_  c #3FB7E4",
"`  c #3FB7E5",
"'  c #3FB8E6",
"]  c #3EB8E7",
"[  c #37B5E8",
"{  c #38B6E8",
"}  c #39B6E8",
"|  c #39B7E8",
" . c #39B7E9",
".. c #3AB7E8",
"X. c #3BB7E8",
"o. c #3AB7E9",
"O. c #3BB7E9",
"+. c #3CB7E8",
"@. c #3BB8E8",
"#. c #3AB8E9",
"$. c #3BB8EA",
"%. c #3DB8E8",
"&. c #3CB8E9",
"*. c #3DB8E9",
"=. c #3DB9E9",
"-. c #3EB8E8",
";. c #3FB9E8",
":. c #3EB9E9",
">. c #3CB9EA",
",. c #3DB9EA",
"<. c #3DB9EB",
"1. c #3EB9EA",
"2. c #3EB9EB",
"3. c #3EBAEA",
"4. c #3FBAEA",
"5. c #3EBAEB",
"6. c #3FBAEB",
"7. c #40B7E4",
"8. c #40B8E5",
"9. c #41B8E5",
"0. c #40B8E6",
"q. c #40B9E6",
"w. c #41B9E6",
"e. c #41B9E7",
"r. c #42B9E6",
"t. c #42B9E7",
"y. c #42BAE7",
"u. c #40BAE9",
"i. c #43BAE8",
"p. c #43BBE8",
"a. c #43BAE9",
"s. c #40BAEA",
"d. c #41BAEA",
"f. c #40BBEB",
"g. c #41BBEB",
"h. c #42BBEA",
"j. c #43BBEA",
"k. c #42BBEB",
"l. c #44BBE9",
"z. c #44BBEA",
"x. c #42BCEB",
"c. c #44BCE9",
"v. c #44BCEA",
"b. c #45BCEA",
"n. c #44BCEB",
"m. c #45BCEB",
"M. c #45BDEB",
"N. c #40BBEC",
"B. c #41BBEC",
"V. c #41BCEC",
"C. c #42BCEC",
"Z. c #43BCEC",
"A. c #42BCED",
"S. c #43BDED",
"D. c #44BDEC",
"F. c #44BDED",
"G. c #46BDEC",
"H. c #46BEED",
"J. c #44BDEE",
"K. c #45BEEE",
"L. c #46BEEE",
"P. c #46BFEE",
"I. c #47BFEE",
"U. c #47BFEF",
"Y. c #48BFEE",
"T. c #48C0EF",
"R. c None",
/* pixels */
"R.R.R.R.R.R.R.R.R.R.R.R.m.m.m.l.i.m.m.P.R.R.R.R.R.R.R.R.R.R.R.R.",
"R.R.R.R.R.R.R.R.R.J.l.9.8.8.l.l.i.i.8.l.9.a.m.R.R.R.R.R.R.R.R.R.",
"R.R.R.R.R.R.R.l.J.9.t.J.L.T.T.T.T.T.L.T.J.a.t.t.m.R.R.R.R.R.R.R.",
"R.R.R.R.R.R.i.8.i.P.Y.Y.T.L.T.Y.T.L.T.L.Y.Y.J.d.) i.R.R.R.R.R.R.",
"R.R.R.R.R.8.) m.L.Y.Y.Y.P.P.P.P.Y.Y.P.Y.P.Y.U.U.P.) 8.R.R.R.R.R.",
"R.R.R.R.8.' P.P.L.J.P.P.P.P.P.P.P.P.P.J.P.J.Y.J.P.P.' ) R.R.R.R.",
"R.R.R.' ) S.P.S.J.P.J.J.P.P.P.P.P.P.P.P.J.P.J.P.P.S.P.) 8.R.R.R.",
"R.R.A.i.A.S.S.i.A.i.A.A.A.A.S.S.P.A.A.J.J.J.J.J.A.i.S.S.i.f.R.R.",
"R.R.S.i.R.R.R.R.R.R.R.R.R.R.R.i.A.S.S.S.i.S.S.S.A.R.P.S.S.i.R.R.",
"R.R.R.R.R.R.R.R.R.R.R.R.R.6.f.f.>.) >.i.R.<.A.A.i.R.>.A.A.A.A.R.",
"R.R.R.R.R.R.R.R.i.<.i.S.6.T.V.V.i.S.S.>.R.R.i.S.<.R.i.S.6.i.>.R.",
"R.R.R.R.R.>.>.S.6.A.<.A.V.6.6.6.S.<.<.R.R.R.R.R.>.R.>.A.6.A.A.R.",
"R.R.R.R.>.A.A.>.<.6.6.6.6.6.6.6.>.>.>.>.<.<.>.R.R.R.R.>.6.6.6.>.",
"R.R.+.>.>.>.<.<.6.6.6.6.6.6.5.5.<.A.<.i.i.>.>.>.R.R.R.R.<.<.>.>.",
"R.O.>.>.>.<.>.<.<.$.$.$.>.>.>.>.>.$.<.<.>.+.R.R.R.~ ~ R.R.$.>.>.",
"~ $.$.$.>.+.>.O.<.$.$.$.$.$.$.$.$.$.$.$.>.R.R.~ ~ >.$.O.O.+.+.>.",
"O.$.O.~ ~ ~ $.O.$.$.$.$.O.O.O.O.$.$.$.$.O.I O.O.I ~ O.O.O.$.$.I ",
"I K O.R.R.I I I I k I ~ I j I ~ I I I I I ~ I I ~ C ~ I I I $.I ",
"I K K R.R.I R.C k s R.C R.j j R.I j R.I I R.I j R.R.R.R.R.I K I ",
"I O.I R.R.I R.I R.a R.j R.a C R.k j R.k I R.C C R.j R.C R.I K I ",
"n I I n I n C K I n C n R.R.C n k I I n C C n C n I C I I m K R.",
"R.I m I K C K K I m C I n a I K I m K K C I K K I m I C m I I R.",
"R.n n m I n n C n n n m C n C n n n n n n n n C n n n C C n n R.",
"R.R.n n n n n n n n n n n n n n n n n n n n n n n n n n n n R.R.",
"R.R.a y ; n a n z n z n z n n n g n z n n n n n n n n ; a a R.R.",
"R.R.R.y ; y p n n n n g n z i n n z n n n p a n n n 7 ; y R.R.R.",
"R.R.R.R.y o 7 p n i p p g i n n i z n i i z n p i 7 = 7 R.R.R.R.",
"R.R.R.R.R.7 X ; i p p i i i i i z i p p p i p y # = 7 R.R.R.R.R.",
"R.R.R.R.R.R.7 < < 7 i i i p i i 7 i i i y y 7 X < 7 R.R.R.R.R.R.",
"R.R.R.R.R.R.R.7 < # # < 0 0 0 0 i i i i % X % % < R.R.R.R.R.R.R.",
"R.R.R.R.R.R.R.R.R.7 # # @ #   #   # # # % < 7 R.R.R.R.R.R.R.R.R.",
"R.R.R.R.R.R.R.R.R.R.R.R.< # < < # < # < R.R.R.R.R.R.R.R.R.R.R.R."
};
