/* XPM */
static char *c584866c41cd4467d7f38f300bcb24b1[] = {
/* columns rows colors chars-per-pixel */
"128 128 32 1 ",
"  c #239EC7",
". c #239FCA",
"X c #25A2CE",
"o c #2EA5CC",
"O c #30A6CD",
"+ c #27A5D3",
"@ c #28A7D5",
"# c #2AA8D7",
"$ c #2BABDC",
"% c #34ABD5",
"& c #32AEDC",
"* c #38AFD9",
"= c #34B0DE",
"- c #3AB2DD",
"; c #2DAFE2",
": c #32AFE0",
"> c #2EB0E4",
", c #33B3E6",
"< c #3BB5E4",
"1 c #3EB8E6",
"2 c #37B6E8",
"3 c #39B7E9",
"4 c #3DB9EA",
"5 c #40B7E4",
"6 c #41B9E6",
"7 c #44BDED",
"8 c #48BFEF",
"9 c #47BFF0",
"0 c #48C0EF",
"q c #47C0F0",
"w c #49C0F0",
"e c None",
/* pixels */
"eeeeeeeeeeeeeeeeeeeeeeeeeeeeeeeeeeeeeeeeeeeeeeeeeeeeee-6668786860060766665eeeeeeeeeeeeeeeeeeeeeeeeeeeeeeeeeeeeeeeeeeeeeeeeeeeeee",
"eeeeeeeeeeeeeeeeeeeeeeeeeeeeeeeeeeeeeeeeeeeeeeeee<67880w0000www00w0088www000865eeeeeeeeeeeeeeeeeeeeeeeeeeeeeeeeeeeeeeeeeeeeeeeee",
"eeeeeeeeeeeeeeeeeeeeeeeeeeeeeeeeeeeeeeeeeeeee55880wwwwww888807680606888800www00875eeeeeeeeeeeeeeeeeeeeeeeeeeeeeeeeeeeeeeeeeeeeee",
"eeeeeeeeeeeeeeeeeeeeeeeeeeeeeeeeeeeeeeeeee<6888w0www85655e5e*ee-eO5e%e65-560800888886eeeeeeeeeeeeeeeeeeeeeeeeeeeeeeeeeeeeeeeeeee",
"eeeeeeeeeeeeeeeeeeeeeeeeeeeeeeeeeeeeeeee6888ww658556e-6e-e-e6ee5e*-e-e*e65e-6886e-888886eeeeeeeeeeeeeeeeeeeeeeeeeeeeeeeeeeeeeeee",
"eeeeeeeeeeeeeeeeeeeeeeeeeeeeeeeeeeeee570w88877ee5e5%e58eee5e65<7*-5e5e-e68e*888ee557w88086eeeeeeeeeeeeeeeeeeeeeeeeeeeeeeeeeeeeee",
"eeeeeeeeeeeeeeeeeeeeeeeeeeeeeeeeeee588ww885**e*e5e-*5%55567808800887878557*6e68e--%e66808886eeeeeeeeeeeeeeeeeeeeeeeeeeeeeeeeeeee",
"eeeeeeeeeeeeeeeeeeeeeeeeeeeeeeeee18ww8065<%e5e5e%5-68888088ww800000088888658-78e5e%e5e%5e78w87eeeeeeeeeeeeeeeeeeeeeeeeeeeeeeeeee",
"eeeeeeeeeeeeeeeeeeeeeeeeeeeeeee5600006*%ee-e**767000000000000000000000q0w80080087-%e5e-ee5000q06eeeeeeeeeeeeeeeeeeeeeeeeeeeeeeee",
"eeeeeeeeeeeeeeeeeeeeeeeeeeeee-700006*5e57e6-e6q08800000000000q0000000000ww0000880006<--e607*-00085eeeeeeeeeeeeeeeeeeeeeeeeeeeeee",
"eeeeeeeeeeeeeeeeeeeeeeeeeeee5000000e<0ee05607000000000qq0000000000000000000000000000007*-7eOe67q007eeeeeeeeeeeeeeeeeeeeeeeeeeeee",
"eeeeeeeeeeeeeeeeeeeeeeeeee-70856*50-e-56000000000000000q0000000q0000000q00000000000q000008e%e-e*68885eeeeeeeeeeeeeeeeeeeeeeeeeee",
"eeeeeeeeeeeeeeeeeeeeeeeee50007O-ee6811qq0000qqqq00qqqqqq00qqqqqq0000qqqqqqqq0000qqqqqqqq006**eeee70006eeeeeeeeeeeeeeeeeeeeeeeeee",
"eeeeeeeeeeeeeeeeeeeeeeee68806e*85O<0q8880000888888q7888807qq0778708q8q88888q88888888888887007-*e%e%*507eeeeeeeeeeeeeeeeeeeeeeeee",
"eeeeeeeeeeeeeeeeeeeeee-708765e507<78q08888qqq8888888888q8887088888887qqq88877888q88q88888000871--e*e5888<eeeeeeeeeeeeeeeeeeeeeee",
"eeeeeeeeeeeeeeeeeeeee<8868-e%-e6888q07888807q78q8888887q88888888788888878888q888788q7888807q8qq86%ee776886eeeeeeeeeeeeeeeeeeeeee",
"eeeeeeeeeeeeeeeeeeee<886e<ee-56907q8887qq87q888q788q7qq788788q88qq7qq87q888q888888q88qq8888q887q8<*78e%6q86eeeeeeeeeeeeeeeeeeeee",
"eeeeeeeeeeeeeeeeeee67886-e%e*789q7887888888q8q87q88q07q08qq88q7q8888888qqq7q78qqq7788789qq877888q888<e%<1891eeeeeeeeeeeeeeeeeeee",
"eeeeeeeeeeeeeeeeee1888<O*ee78989qq7qqqqq7q7qq7q7q8q7q87q7q7q7q7q7qqq7q7qq7q7qqq7qq787q7qq7q7qqqq8787-e%eo<986eeeeeeeeeeeeeeeeeee",
"eeeeeeeeeeeeeeeee18881ee-16q79787qqqq77qqq78q70qq7q788qq7qqq7q8qq77qqq78q78qq77q7qqqqq7qq7qqq77qqq88q8<eO*78q6eeeeeeeeeeeeeeeeee",
"eeeeeeeeeeeeeeee<8876%ee%678qq7q7qq7qqq7q7qq7q7q77qqq877qqq7qq77q778qq7qq7qqq7798qq7q7qqqq7qq7797qq7886%<ee*786eeeeeeeeeeeeeeeee",
"eeeeeeeeeeeeeee<888<ee<67qqq7q7qqq70778qqq7q070qqq077qqqq77q78qqqqqq7q7qq7q7qqqq77qq7qq77qq7qqqqq70q87q76e<1<786eeeeeeeeeeeeeeee",
"eeeeeeeeeeeeee-777*e<<57q78778888778878777887777787787877887999977877887888787977q87788778897897877778787%<5e1681eeeeeeeeeeeeeee",
"eeeeeeeeeeeeee778-oee688877q77777877q7q7787770078770q77877q77777777q77877778779777q777878777777q7707878787<e*e<88<eeeeeeeeeeeeee",
"eeeeeeeeeeeee787<-e%&797778777q777q9788777777779777q777777qq777q0077877777q77q7707q77977q87777778777qq77797%ee-177-eeeeeeeeeeeee",
"eeeeeeeeeeee1761e<<-69777q77q777q7777777q7q88q777q777q7q7977q77q770777q7q778797q77q77q97777q97q7q7q777q79777&-ee177eeeeeeeeeeeee",
"eeeeeeeeeee<81%5ee179979778q77q77797q7qq77q7777977qq877077777777q77779977q777777077777977q7q77797777787797777ee<*696eeeeeeeeeeee",
"eeeeeeeeeee61ee<1-178779q777q7q7877977777q777q798777787779797q97777q9779777q797977q797798777977778q787707799866ee%68<eeeeeeeeeee",
"eeeeeeeeee1711-ee6877777q777777q877777797q7q7777777777q7777777777q7777777q7777777877777777777q97777877777777776e%e677eeeeeeeeeee",
"eeeeeeeee<87777<<7777777777777777771771664176877777777779797777777777777777777797777777777777777777177777777779:<<7991eeeeeeeeee",
"eeeeeeeee7779777777777797786661<<eeeeeeeeeeee<<1177877777777777777777777777777777777777777777777777e<67777777777777777<eeeeeeeee",
"eeeeeeee<77777777777777613<eeeeeeeeeeeeeeeeeeeeeeee-<1747777777777777777777777777777777777777777776eee<7777977777777786eeeeeeeee",
"eeeeeeee6777477777761<eeeeeeeeeeeeeeeeeeeeeeeeeeeeeeeeee<167777777777747q4q477777777777474777777771eeee77777774777777774eeeeeeee",
"eeeeeee1777777q411-eeeeeeeeeeeeeeeeeeeeeeeeeeeeeeeeeeeeeeeee<16774777777777777747747777777777477477eeee17777777777747747eeeeeeee",
"eeeeeee7777777<eeeeeeeeeeeeeeeeeeeeeeeeeeeeeeeeeeeeeeeeeeeeeeee<<77777777477477771ee<77777777777774eeee177777777777747q44eeeeeee",
"eeeeee177741*eeeeeeeeeeeeeeeeeeeeeeeeeeeeeeeeeeeeeeeeeeeeeeeeeeeee<144777q77777771eee47777477777777eeee-47777477777777777eeeeeee",
"eeeeee7411eeeeeeeeeeeeeeeeeeeeeeeeeeeeeeeeeeeeeeeeeeeeeeeeeeeeeeeeeee-164777477771eee77744777777777eeeee74744747474774497<eeeeee",
"eeeee161eeeeeeeeeeeeeeeeeeeeeeeeeeeeeeeeeeeeeeeeeeeeeeeeeeeeeeeeeeeeeeee<17477747<eee44777477447471eeeee4977777774774q7977eeeeee",
"eeeee<eeeeeeeeeeeeeeeeeeeeeeeeeeeeeeeeeeeeeeeee<344474777777777641111<:eeee<17777<eee77777777777774eeeee344777477777q94447<eeeee",
"eeeeeeeeeeeeeeeeeeeeeeeeeeeeeeeeeeeeeeeee<1164174779494774477447777777771<eee<361eeee44747477474476eeeee3777747774747477777eeeee",
"eeeeeeeeeeeeeeeeeeeeeeeeeeeeeeeeeeee,344744774777747744749449444744774777744<eeeeeeee17474774777774eeeee:677774447744774474<eeee",
"eeeeeeeeeeeeeeeeeeeeeeeeeeeeeeee<1747777477447744774477794994494477447q4477471-eeeeee14774477447471eeeeee7744777774777477474eeee",
"eeeeeeeeeeeeeeeeeeeeeeeeeeeee34474744774774777477477747444949479747774444777474-eeeeee4167747774774eeeeee1474747474747747774eeee",
"eeeeeeeeeeeeeeeeeeeeeeeeee<44794474q4447474744747444474749449447474747474744744eeeeeeeee<4474447474eeeeee<747474747474744447<eee",
"eeeeeeeeeeeeeeeeeeeeeeee<47449447747447447744747744794474494944474477474477741eeeeeeeeeeee-<4747471eeeeee<7474744747747747474eee",
"eeeeeeeeeeeeeeeeeeeeee3447744949447474477447747447744474947474474474474774444-eeeee:<eeeeeeee<16741eeeeeee4447477444474474741eee",
"eeeeeeeeeeeeeeeeeeee<174744744494q474774477447447444474747444494744774744741<eeee-1741eeeeeeeee<<44eeeeeee1774747474744747476<ee",
"eeeeeeeeeeeeeeeeee<44447474494444444744744477447747944747449944474744747747<eeee<447441<eeeeeeeeee<eeeeeee14474747474474744743ee",
"eeeeeeeeeeeeeeee&14744474474744474474144494449444444747474444449444794474443ee,4744444444<eeeeeeeeeeeeeeee<7747444444477444444ee",
"eeeeeeeeeeeeeee<74474744444444947444474744444494477444744494494447444444474444474447477444<eeeeeeeeeeeeeee-4441447474744477474ee",
"eeeeeeeeeeeee:141474477447444444474747477474494444447444747449444774444744474464474444444741:eeeeeeeeeeeeee4474774474444474774<e",
"eeeeeeeeeeee<447444444444474747444444444444444444747447444444444444474444744474444744747444414&eeeeeeeeeeee<444444444474444444<e",
"eeeeeeeeee&144444444414474474944474447444444494444444447444447444474444474477444744774744744444<eeeeeeeeeeee:177447444474474441e",
"eeeeeeeee,4474744744474444444444444744447447444444494444747444474744747444444447444444444474471<eeeeeeeeeeeeee:1444447444444444e",
"eeeeeeee24444444444744447444444444444444444444444444444444444444444444444444444444444444444443:eeeeeeeeeeeeeeeee444444444444444&",
"eeeeeee<4444444444444444444444444444474444444444444444444444444444444444444444444444444444443eeeeeeeeeeeeeeeeeeee,4444444444447:",
"eeeeee<44144444444444444444444444444444444444344444444444444444444444444444434444444344414<<eeeeeeeeeeeeeeeeeeeeeee<44437444414:",
"eeeee<44444444444444444444444444444444444444444449444444444444444444444444444444444444144<&eeeeeeeeeeee<<&eeeeeeeeee<4444444444<",
"eeee,44444443443444444443444344344443443444444444444434444444444444444444444444444444443,eeeeeeeeeeee,<4433:eeeeeeeee3443444444,",
"eee:44443444444444444434444444444444444434444444344444344444344344344434444444444444343-eeeeeeeeeee:144344443<eeeeeee,434444441<",
"ee&31443444343444444444444443444434444444444433444444344444344444444444444443344443411eeeeeeeeee&23414344444444,&eeee3444443434,",
"ee2443343443344344343334434343343434433443433443434334343344434333433434334334433443,eeeeeeeee-,34334443343433434<<,24444344444<",
"e:14344344344434334343433434343343433434343443443434434343433434343443434334433443<&eeeeeeee,33434444343434343344331434343434332",
"e<44433434434343443434344343434434344343434344434343343434344343434334343443444413eeeeeeee:343434334343434343443443434344434341,",
"&344344434133431413334134343343434434133344334343443434143343443334333134334434333,&eee&,314344343133114414333144434343143343342",
",43343334333433133434344343443433134334134344343434443333433433334433344333434344413<,<33113433412&ee,23334343333343444343143422",
"213333333,,-=,:,=,,-=,333313333334433333331333333333333333433331333343343333343333333313433333332&eeee233333333333333333242334<2",
",34333333*eeeeeeeeeee=333333333332333333343333333333333333133333334332413433333333133333333313333=eeee2334313334333333334233331=",
"233333333332<eeeee:333334333333333333333333333333333333<233333333333333333333333333333333333333333-e=,13333333333333333333333332",
"=13333333433,eeeee,333322222333<333333,3223333333322,<,ee&3333322333333333332222333333332222333333,3,3333<3,233323,333333333331,",
",33333333333<eeeee-2333,eeee,:ee232&eeeeee,33333,&eeeee&,,333:eeeee:333333,*eeee&,3332=eeee%,3333:eeee233$eee:2%eee&33333333332=",
",33333333333,eeeee=3333=eeee-eee,2ee,,<,eee&333,eeee=,%e<332&eee;2:ee,332,eee=<,ee33,eeee,,&e=233=eeee,32eeeeee%eeeee3333333333=",
"=322233233<2,eeeee;2323&eeeee=,,32,<,33,eeee:3<eeeee,3<%e,3:eeee&222e%<3,eeee:33,,3,eeeee<3,:e:33=eeee,3<eeeee:,-eeee,322223232&",
"&323<3323,22,eeeee=3232=eeeee,32<3,=eee%eeee&3:eeeee,33,e<<eeeee:323,e,,eeeee,33223-eeeee,333&e<2=eeee<,,eeeee33:eeee=232332323e",
"$23223223332<eeeee=3233=eeee=3,32=eee$:$eeeee3,eeeee,32,e,,eeeee=2222e=,eeeee:<3233:eeeee,223,e,,&eeee,33eeeee,3-eeee,323233222e",
"e232222323,2:eeeee=323,&eeee:333,eeee=2<eeeee,<eeeee,3,=e<,eeeee&2222%*,eeeee,22232eeeeee,3<3,e<3=eeee<3,eeeee<2:eeee,222222222e",
"e22222222222,eeeee:2222=eeee,222=eeee:3,eeeee33:eeee-,&e:3:eeeee=222<e:,eeeee,3,22,%eeeee<,32,e,3=eeee:3,eeeee33:eeee,32222222=e",
"e=2222222222,eeeee:2222=eeee,233:eeee:3<eeeee,3,eeeeee%:22,eeeee&232,e:2eeeee,33333:eeeee,233:e,3$eeee,3<eeeee,2=eeee:32222222=e",
"e=2223222223,eeeee$322,=eeee,,3,:eeee:2,eeeee,<ee#&$&:,2322%eeee&222&e,3=eeee,,33,3,eeeee,22<e$22&eeee,,2eeeee23=eeee,3,222222ee",
"ee2,2,22222<,eeeee=222,=eeee,222,eeee=,=eeeee3:eeeeeeee$>22,eeee&2,$e:22,eeee:3,:e:3:eeee:2:e$,22&eeee,3,eeeee,2:eeee:22222,22ee",
"ee,2,3,3,22,,eeeee,2222;eeee,3,,,,eeeeeeeeeee3,eeeeeeeeee:,3,$eeeeee,,32,,>eee$ee&,2,,eeeeee;,,23%eeee>2,eeee;2,&eeee,,,3,2,2=ee",
"ee=22,3,3,22,==,,>222,2,,=,:,,323,<,:;:,-,=,,,,=eeeeeeeee&3,2,>:&&:,,32,2,2,>,::,,3,3,,:>>,,,322,,,:>>,2,,,>,,22,:,:,,22,3222&ee",
"ee:,22,3,,2,3,32,2,>,,222,,3222,2,,,3,3,,2223,,=,::;&$eee=,3,22222,22,2222222222,,3222222,22<2,22,,3322,3,2222222,,33,2,22,2,eee",
"eee,,22,,322222,22,222,2222,2,222222,2,2,2,22,,ee$:,:=ee$,2,2,2,,22,,22,,2,22,2,<2,2,2,22>222,2,,33,2,2,,2,2,2,2222,,2,2222,,eee",
"eee,,,,22,2,,2,,22>22,,2,,,2,23,,,,2,23,2,22,3,,>$eeee;>,,2,2,,23,,22,2,2222,22,,,,2,2,,2222,2,223,,,2,223,,2,,2,,,2,23,2,22=eee",
"eee=,22,,2,2,,,32>22,2,2,23,2,,,,22,2,,2,2,,,,<,2,,,2,>2<,,3,22,,,2,,2,2>22>2,,,33,,2,,222>22,2,,,,2222,,,2<,22,,22,2,,222,,eeee",
"eeee,,22,22,2,,2222,,22>22,,,2,3,2,,,2,,22,2,,2,2,,2222,2,2,,2,2,22,,,,2>2>2,2,2,2,2,,,32>2>,2,2,2,3,,2,,2,2,,2,22,2,,,,,,3:eeee",
"eeee:2,,,,,,22,,22,,2,,2,,,3,,,,2,,3,,,22>,3,2,,,2,,,,,2,,,,3,2,2,,,23,,>222222,2,,2,3,,2>222>,22,,,22,2,,,,2,,2,,2,,2,2,,,$eeee",
"eeee%,,2,2,,,2,,2,,,2,,,,2,>22222,,,2,,,,,,,2,,2,2,2,,2,,,2,,,,,,2,,2,,,,,,22>,,,,2,,2,2,2,,,,,,,,,,22,,,2,,2,,,,2,,,,,,2,>eeeee",
"eeeee,,,,,2,2,,2,,2,,22,2,,2>>22,,2,,,,,,2,2,,,,,,,,2,,,,,,,,2,2,,,2,,,22,,,>2,2,,2,,2,,,,2,,,2,,22,,,2,,,,,2,2,,,22,3,,2,=eeeee",
"eeeee$,,,,,,,,,,,,,,,,,,>,2>2>>2,,,,,,,,,,,,,,,,>2>2,,,,2,,,,,2>,,,,,,,,,,,,2>22,,,,,,,,,,,,2>2>,,,,,,,,,,,,,,,,,,,,,,,,,>eeeeee",
"eeeeee>,,,,,,,,,,,,,,,,,,,>2>22>,,2,,,,,,,,,,,,,2>2>,,,,,,,2>2>2,,,,,,,,,,,,>2>>,,,,,,,,,,,,>2>2,,,,,,,,,,,,,,,,,,,,,,,,,;eeeeee",
"eeeeee:,,,,,,,,,,,,,>2>2,,,,22>2,,22>2>,,,,,,,,,,2>22>2>,>2>>2>>,,,,,,,,,,>22>>2,,,,,,,,,,2>2>2>,,,,,,,,,,,,,,,,,,,,,,,,,eeeeeee",
"eeeeeee,,,,,,,,,,>,,2>22,,,,>22>,,>22>,,,,,,,,,,,,2>>2>2,2>22>22,,,,,,,,,,2>>22>,,,,,,,,,,>2>2>2,,,,,,,,,,,,,,,,,,2,,,,,=eeeeeee",
"eeeeeee;,,>,,,,,;>2>>22>>2,,2>>>>22>>2,,,,,,,,,,,,,,2>>,>22>>2>2,,,,,,,,,,22>2>2,,,,,,,,,22>2>22,,>,,,,,,>,,,,,,,,,,,,,,eeeeeeee",
"eeeeeeee>,,,,,,>$>>2>>>>2>22>2>>2>2>2>2,,,,,>,,,,,,,>22>2>>22>2>,,,,>,,,,,2>2>2>,,,,>>,,,,>2>2>>>,,,,,,,,,,,,,,;;,>,,,,$eeeeeeee",
"eeeeeeee$>,,,>$ee#,,,,,,,,,,,,,,,,,,,,,,,>,,2>2,>22>2,>22>2>2>2>2,>2,,2,>2>2>22>,,>>>,>,,,>2>2>2,,,>,,2>,,,,,,:@e%:,,,;eeeeeeeee",
"eeeeeeeee=,,,$ee$&,>,,>,,>,,,>,,,>>,>,>,,,,,>,>,,>>2>,,>>2>,,,,,>,>>,>>,,,>,2>>2,,>,,,,,>,,,,>,,,,,,,,,>,,>,,>$e@@;,,,$eeeeeeeee",
"eeeeeeeeee;,>;#=$e:,,>>,>>,>,>>,,,>,,,>,>,>,>,2>>>,>,>>,,>>>>,>>>>,2>,>,>,2>>>,>>,>,,>>,,>,>>,>,>,>,,>>,,>>,,$@$e$:>,;eeeeeeeeee",
"eeeeeeeeee$>,,:$ee$>>,,,,,>,>,,>>,,>>,,>,>,>,>>>2>>,>,,>>>22,>,,>,>>>2>>,>>>>2>,,>,,>,,,>,>,,>>2,>,>2,,>>,,>:ee$;,>,:eeeeeeeeeee",
"eeeeeeeeeee:,>,;$&##>,,>>,,>,,>,,>,,,>,>,>,,>,>2>>>2,,>,>>>>>>>2,,>,2>>2>>,>,>2,>>,>,>,>,,,>,>,>>>>>>,>,>,>:e#ee:,>,$eeeeeeeeeee",
"eeeeeeeeeeee;,>,;ee $,>,,>,,,>>,,>>,,,>,>,>,2>>222>>>,2>2>2>>2>>,>>2>>>,2>,,>,>>,,,,,>>,,>,,>2>,2>2>>>>,,,,$@e$:>,,:eeeeeeeeeeee",
"eeeeeeeeeeee#,>>:+Xe#=>,,>,>>,,>>,>,>>>,,,>>>>2>>>>>>>>>2>>22>2>2>>>2>2>>,>>>>>>>>>,>,>,,>>,>>,>>>>2>>2>>>$eeX$>>>;eeeeeeeeeeeee",
"eeeeeeeeeeeee$,>,$e$ee>>,,>>,>>,,,>>,>>,>>>,>>>>,>2>>2>>>>>>>>>>>>>2>>>,,>>22>>2,,>,,>,,>>,>,>>>>>>2>2>>:@$$e#>>,>eeeeeeeeeeeeee",
"eeeeeeeeeeeeee::>,;;ee#;>>>,>>,>2>>,>,,>,>>>,>>>>2>>>>2>>>>>,>>>>>>>>>>>>,>>,>>>>>>,>2>>,>>,,>>,>2>>>>,,;e$$&>>,:$eeeeeeeeeeeeee",
"eeeeeeeeeeeeeee;>>>&$$ee;,>>>,,>>>,>,>>>>>,,>>,,>>>>,>>>2>>2>>2>>2>>>,>2>>>>>>>>>,>>>>2>>>>>>,,>>2>>>,>$#ee#>>>,$eeeeeeeeeeeeeee",
"eeeeeeeeeeeeeeee:>>>:$ee$;#>,>>>>,>>>,>,>,,>>,,>2>2>,>,>>,>>>,>,>>>>>2>>>,>,2>>2>>>>2>>>>,>>>>>>2>2>:>$XX#:;>>>$eeeeeeeeeeeeeeee",
"eeeeeeeeeeeeeeeee:>;;$+@+e#>>,>>>,>>>>>>>>>>>>>>>>>>>>>>>>>>,>>>>>2>>>>>,>>>>>>>2>>>>>>>>,>,>,>,>>>>;$$e+#>>>>:eeeeeeeeeeeeeeeee",
"eeeeeeeeeeeeeeeeee;>>;$$ee#$>>>>>>>>>>>>>,>>>>,>>>>>>>>>>,>>>>>>>>>>>>>>,>>>>>,>>>>>>>>>>>,>>>>>>>>>$ee+#$>>>:eeeeeeeeeeeeeeeeee",
"eeeeeeeeeeeeeeeeeee;,>,$e+e $>>>>>>>>>,>>>>>>>>>>>>2>>,>>>>>>>>>>>2>>>>>>>>>,>>>>2>>>>>>>>;>>>>>>;e;$#e$>>>>;eeeeeeeeeeeeeeeeeee",
"eeeeeeeeeeeeeeeeeeee;:>>;#X@##;;;>>>>,>>>>>>>>>>>>>>>>,>>>2>,>>,>>>,,>>>>>>>>>,>>>>>>>>>;,>,,>>>;@e$>;#:>>>$eeeeeeeeeeeeeeeeeeee",
"eeeeeeeeeeeeeeeeeeeee;,>>$X$+eXe;,>>>>>,>>>,>>>>>>>>>>>>>>>>>>>>>>>>>>>,>,>,>>>>>>>>>2>>,>>>>>>>;e#e$>;>>>&eeeeeeeeeeeeeeeeeeeee",
"eeeeeeeeeeeeeeeeeeeeee$>>>>$e#;##;>>>>>;>>>>>>>>>;>;>>>>>>>>>>>>>>>>>>>>>>>>;>;>;>>>>>>;>;>>>;$e@eXX$>>>>$eeeeeeeeeeeeeeeeeeeeee",
"eeeeeeeeeeeeeeeeeeeeeee$>>>;;;>$e#;>>>>>>>>>>>>>>>>>>>>>>;>>>>>>>>>>>>>>>>>;>>>>>>>>>>;;>>;>;#eee@$;>>>;$eeeeeeeeeeeeeeeeeeeeeee",
"eeeeeeeeeeeeeeeeeeeeeeee#;>>>>;Xe$>$#;>;>>>>>>>>>;>>>>>>;>>>>>;>>>>>>;>>>>>>>>;>>>>>>>>;;;;@##e@e$>>>>;eeeeeeeeeeeeeeeeeeeeeeeee",
"eeeeeeeeeeeeeeeeeeeeeeeeee;>>>>#@;$e+#$;>>;>>>>>>>;>>>>>>>>>>>>>>>>>>>;>>>>>>;>>>;>>;>;;;;$Xe#e#;>>>>$eeeeeeeeeeeeeeeeeeeeeeeeee",
"eeeeeeeeeeeeeeeeeeeeeeeeeee$;>>>>>$e;$eX$;>;>>>>>>>;>>>>;>>>;>>>>>>;>>>;>>>>;>;>>>>>>>$e$;$e.e;;>>>;$eeeeeeeeeeeeeeeeeeeeeeeeeee",
"eeeeeeeeeeeeeeeeeeeeeeeeeeeee;>>>;;+$ee$e##;;;;;;>>>;;>>>>>;>>>;>>>>;>>>>>>>>>>;;>>>$X@e$;;@$;>;>>;eeeeeeeeeeeeeeeeeeeeeeeeeeeee",
"eeeeeeeeeeeeeeeeeeeeeeeeeeeeee$;;;>;$@;;eXXe#;$#;;;;>;>>>>;>>>>;>>>>>;>;>;>;>>;;#$@#@ee@e+;>;>>;;$eeeeeeeeeeeeeeeeeeeeeeeeeeeeee",
"eeeeeeeeeeeeeeeeeeeeeeeeeeeeeeee;;>;;;;$+;e#e@ee;;;>>>>;>;>>>>>>>>>>>>>>;>;>>>;eXX.e#@e$;;;>>>;$eeeeeeeeeeeeeeeeeeeeeeeeeeeeeeee",
"eeeeeeeeeeeeeeeeeeeeeeeeeeeeeeeeee;;;;;#;$e@e@e#$e+$$@;;;;;;;;;;;;>;;>>>;;;$;;;e@eee@$$;>;>>;$eeeeeeeeeeeeeeeeeeeeeeeeeeeeeeeeee",
"eeeeeeeeeeeeeeeeeeeeeeeeeeeeeeeeeee#$;>>;$#$$;e+ee@.e$#e#e##+$#$##;#+#$e++e+;;;@e$@$$;;;;;;$eeeeeeeeeeeeeeeeeeeeeeeeeeeeeeeeeeee",
"eeeeeeeeeeeeeeeeeeeeeeeeeeeeeeeeeeeeee$;;;;;;;$$;+++e;$e@e$e@e+Xee+e+e+e;$e+$e;$$;;;;;;;;$eeeeeeeeeeeeeeeeeeeeeeeeeeeeeeeeeeeeee",
"eeeeeeeeeeeeeeeeeeeeeeeeeeeeeeeeeeeeeeee#;>;;>;;;;;;@@$eee+e;e$ee##e#e@e+$;$;#;>>;>;>;;#eeeeeeeeeeeeeeeeeeeeeeeeeeeeeeeeeeeeeeee",
"eeeeeeeeeeeeeeeeeeeeeeeeeeeeeeeeeeeeeeeeeee$;;;;;;;;;;;$+;+;;+$$@+$$$$;;$;#$;;;;;;;;$eeeeeeeeeeeeeeeeeeeeeeeeeeeeeeeeeeeeeeeeeee",
"eeeeeeeeeeeeeeeeeeeeeeeeeeeeeeeeeeeeeeeeeeeeee$;;;;;;;;;;;;;;;;;;;;;;;;;>;;;;;;;$$eeeeeeeeeeeeeeeeeeeeeeeeeeeeeeeeeeeeeeeeeeeeee",
"eeeeeeeeeeeeeeeeeeeeeeeeeeeeeeeeeeeeeeeeeeeeeeeee#$;;;;;;;;;;;;;;;;;;;;;;;;;;$eeeeeeeeeeeeeeeeeeeeeeeeeeeeeeeeeeeeeeeeeeeeeeeeee",
"eeeeeeeeeeeeeeeeeeeeeeeeeeeeeeeeeeeeeeeeeeeeeeeeeeeeee##$$;$;;$;$;$$$$$$##eeeeeeeeeeeeeeeeeeeeeeeeeeeeeeeeeeeeeeeeeeeeeeeeeeeeee"
};
